HIERARCHY
ROOT Hips
{
  OFFSET 202.592 103.946 101.174
  CHANNELS 6 Xposition Yposition Zposition Zrotation Xrotation Yrotation
  JOINT RightUpLeg
  {
    OFFSET -8.9458 -8.66707 0.101652
    CHANNELS 3 Zrotation Xrotation Yrotation
    JOINT RightLeg
    {
      OFFSET 0 -44.4227 1.3727
      CHANNELS 3 Zrotation Xrotation Yrotation
      JOINT RightFoot
      {
        OFFSET 0.253549 -42.0924 -1.46059
        CHANNELS 3 Zrotation Xrotation Yrotation
        JOINT RightToes
        {
          OFFSET 0.04 -4.41509 8.4991
          CHANNELS 3 Zrotation Xrotation Yrotation
          End Site
          {
            OFFSET -0.08 -0.137448 9.77979
          }
        }
      }
    }
  }
  JOINT Spine
  {
    OFFSET 0 11.8905 0
    CHANNELS 3 Zrotation Xrotation Yrotation
    JOINT Spine1
    {
      OFFSET 0 25.6574 0.127663
      CHANNELS 3 Zrotation Xrotation Yrotation
      JOINT HEad
      {
        OFFSET 0 8.73416 0.011341
        CHANNELS 3 Zrotation Xrotation Yrotation
        End Site
        {
          OFFSET -0.29 12.7742 2.51395
        }
      }
      JOINT LeftShoulder1
      {
        OFFSET 8.99 -0.362252 -0.22
        CHANNELS 3 Zrotation Xrotation Yrotation
        JOINT LeftArm
        {
          OFFSET 10.2827 -0.00338 0.322123
          CHANNELS 3 Zrotation Xrotation Yrotation
          JOINT LeftForeArm
          {
            OFFSET 32.7669 0.099144 -1.42434
            CHANNELS 3 Zrotation Xrotation Yrotation
            JOINT LeftHand
            {
              OFFSET 27.5643 0.085362 1.02216
              CHANNELS 3 Zrotation Xrotation Yrotation
              End Site
              {
                OFFSET 16.7443 -0.6 1.50291
              }
            }
          }
        }
      }
      JOINT RightShoulder
      {
        OFFSET -8.99 -0.362252 -0.22
        CHANNELS 3 Zrotation Xrotation Yrotation
        JOINT RightArm
        {
          OFFSET -10.2827 -0.00338 0.322123
          CHANNELS 3 Zrotation Xrotation Yrotation
          JOINT RightForeArm
          {
            OFFSET -32.8971 0.099144 -1.42434
            CHANNELS 3 Zrotation Xrotation Yrotation
            JOINT RightHand
            {
              OFFSET -27.4921 0.085362 1.02216
              CHANNELS 3 Zrotation Xrotation Yrotation
              End Site
              {
                OFFSET -16.6312 -0.6 1.50291
              }
            }
          }
        }
      }
    }
  }
  JOINT LeftUpLeg
  {
    OFFSET 8.9458 -8.66707 0.101652
    CHANNELS 3 Zrotation Xrotation Yrotation
    JOINT LeftLeg
    {
      OFFSET 0 -44.4227 1.3727
      CHANNELS 3 Zrotation Xrotation Yrotation
      JOINT LeftFoot
      {
        OFFSET -0.253549 -42.0924 -1.46059
        CHANNELS 3 Zrotation Xrotation Yrotation
        JOINT LeftToes
        {
          OFFSET -0.04 -4.41509 8.4991
          CHANNELS 3 Zrotation Xrotation Yrotation
          End Site
          {
            OFFSET 0.08 -0.047448 9.77979
          }
        }
      }
    }
  }
}
MOTION
Frames:	10
Frame Time:	0.0166667
98.2077	100.057	-287.03	0.835387	0.167558	167.021	-0.331317	-24.5684	-4.15975	5.70182	33.7077	3.8418	5.71662	-8.93667	-28.974	0.0462048	0.000533964	0.662642	0.791691	-2.44153	-1.81423	1.50763	-4.90394	-3.59973	5.66258	15.0127	8.79133	7.95E-16	-3.18E-15	-6.36E-15	-64.4059	29.3494	-4.51565	-6.56523	27.9526	-19.49	-6.13452	7.08185	6.76522	7.95E-16	-3.18E-15	-6.36E-15	73.7275	20.2693	-22.9404	2.69003	1.06384	37.0431	-0.414484	10.306	0.0289846	8.23342	-18.1023	15.4272	15.7422	63.1638	-16.1518	-20.0258	-2.46411	-37.8673	1.43E-14	2.54E-14	7.95E-15
98.5947	100.569	-287.985	0.391166	0.306877	166.721	-0.457894	-23.3555	-4.91423	4.80206	32.8654	5.05016	5.60771	-9.27583	-28.9652	0.0462048	0.000533964	0.662642	0.780974	-2.42418	-1.77113	1.48854	-4.86837	-3.51405	5.18061	14.9587	9.31304	0.00E+00	0.00E+00	-3.18E-15	-64.611	27.7093	-2.58106	-6.30222	28.77	-19.1986	-5.37835	6.88432	6.60672	0.00E+00	0.00E+00	-3.18E-15	72.8441	21.2558	-21.3488	3.32436	-1.39127	39.9923	-1.1391	9.72952	0.681428	7.35816	-19.5993	14.893	14.2641	62.3353	-15.1412	-20.3278	-3.33294	-37.3483	1.75E-14	3.50E-14	6.36E-15
98.9527	101.027	-288.932	-0.0250918	0.469758	166.23	-0.50858	-22.0725	-5.73821	3.81183	31.8947	6.51903	5.38947	-9.63644	-28.9176	0.0462048	0.000533964	0.662642	0.769333	-2.41476	-1.697	1.46867	-4.84829	-3.36618	4.79867	14.9549	9.88775	-1.77E-31	-1.59E-15	-6.36E-15	-64.6137	26.292	-0.732125	-6.13813	28.9051	-19.0731	-4.5757	6.62348	6.41797	-1.77E-31	-1.59E-15	-6.36E-15	72.1768	22.1439	-19.8577	3.14502	-2.7607	42.8895	-1.23292	8.46345	1.35459	6.33362	-20.7885	14.0885	12.3954	61.0433	-14.0042	-20.883	-4.30963	-36.8021	1.91E-14	3.18E-14	9.54E-15
99.2987	101.43	-289.839	-0.421549	0.485749	165.563	-0.448122	-21.0164	-6.08955	3.01498	30.8805	7.59347	5.14574	-9.89187	-28.8999	0.0462048	0.000533964	0.662642	0.768766	-2.45673	-1.58549	1.47118	-4.93082	-3.14247	4.56237	14.8829	10.4535	1.77E-31	-3.18E-15	3.18E-15	-64.4172	25.0142	0.998534	-6.09822	28.6703	-19.057	-3.85821	6.42761	6.22335	1.77E-31	-3.18E-15	3.18E-15	71.6717	22.8467	-18.4624	1.61454	-2.84594	45.6492	-0.184347	7.60446	2.08261	5.23638	-21.8135	13.1004	10.4224	59.4407	-12.6851	-21.648	-5.42007	-36.4783	1.43E-14	3.18E-14	9.54E-15
99.6237	101.785	-290.671	-0.832243	0.505891	164.991	-0.427496	-20.0192	-6.25206	2.37064	29.8636	8.31267	4.87036	-10.1484	-28.888	0.0462048	0.000533964	0.662642	0.753435	-2.51731	-1.49146	1.44307	-5.05043	-2.95424	4.4678	14.7701	10.8924	7.95E-16	0.00E+00	-3.18E-15	-64.121	23.953	2.60986	-6.15055	28.2996	-19.1005	-3.2985	6.33742	6.07835	7.95E-16	0.00E+00	-3.18E-15	70.9335	23.1495	-17.0798	-0.89353	-1.70813	48.2415	1.764	8.15916	2.96545	4.07167	-22.6749	11.992	8.8181	57.7239	-11.7626	-22.5241	-6.62883	-36.3815	2.23E-14	3.18E-14	9.54E-15
99.9427	102.115	-291.463	-1.30865	0.620361	164.619	-0.583945	-18.9404	-6.43423	1.85075	28.7948	8.7889	4.55781	-10.4121	-28.8911	0.0462048	0.000533964	0.662642	0.687953	-2.56581	-1.44708	1.31274	-5.14525	-2.86781	4.52798	14.5875	11.153	3.98E-16	-3.18E-15	-3.18E-15	-63.7655	22.9974	4.13432	-6.23178	28.1307	-19.209	-2.91056	6.28845	6.01029	3.98E-16	-3.18E-15	-3.18E-15	70.0429	22.9675	-15.7842	-4.0065	0.371713	50.7939	3.79711	9.76354	3.88471	2.79687	-23.4276	11.134	8.18518	55.9397	-11.7706	-23.4395	-7.73871	-36.508	1.59E-14	2.86E-14	9.54E-15
100.2457	102.418	-292.238	-1.85027	0.739252	164.316	-0.85846	-17.8806	-6.38528	1.50982	27.713	8.94591	4.2574	-10.7442	-28.8674	0.0462048	0.000533964	0.662642	0.573639	-2.60934	-1.42102	1.08395	-5.22922	-2.82048	4.76208	14.1862	11.2473	3.98E-16	-1.59E-15	6.36E-15	-63.378	22.0782	5.55146	-6.26871	28.3488	-19.3579	-2.69199	6.2184	6.00984	3.98E-16	-1.59E-15	6.36E-15	69.0712	22.6271	-14.5784	-7.27726	2.6969	53.4446	5.66917	11.4309	4.5046	1.54358	-24.1813	10.5974	8.13178	54.1744	-12.2193	-24.3035	-8.6829	-36.7461	1.59E-14	3.82E-14	6.36E-15
100.5287	102.69	-292.99	-2.34957	0.840321	164.018	-1.0953	-16.8628	-6.01426	1.32035	26.6259	8.7208	4.01434	-11.0395	-28.8687	0.0462048	0.000533964	0.662642	0.432683	-2.64228	-1.39494	0.802057	-5.29149	-2.77456	5.1509	13.5999	11.1949	0.00E+00	0.00E+00	-6.36E-15	-62.9313	21.1929	6.82223	-6.26189	28.9516	-19.4603	-2.60256	6.16263	6.01299	0.00E+00	0.00E+00	-6.36E-15	68.2557	22.4597	-13.5097	-10.4138	4.65987	56.0888	7.24202	12.3183	4.59465	0.483052	-24.9052	10.2671	8.31292	52.53	-12.7726	-25.0152	-9.55129	-36.9678	1.75E-14	3.18E-14	6.36E-15
100.7937	102.925	-293.721	-2.74956	0.809473	163.774	-1.21685	-15.9906	-5.4827	1.2126	25.5786	8.26218	3.86148	-11.3529	-28.8875	0.0462048	0.000533964	0.662642	0.292992	-2.6806	-1.37983	0.522062	-5.36468	-2.75069	5.57718	12.881	11.0873	3.98E-16	1.59E-15	3.18E-15	-62.4549	20.4855	7.80912	-6.22002	29.7414	-19.401	-2.58156	6.11301	5.98636	3.98E-16	1.59E-15	3.18E-15	67.7416	22.6261	-12.537	-12.9635	5.7503	58.4208	8.52098	12.5111	4.17578	-0.395603	-25.6852	9.9642	8.64531	51.0044	-13.3256	-25.4697	-10.4073	-37.0864	1.91E-14	3.66E-14	0.00E+00
101.0237	103.119	-294.433	-2.99167	0.726891	163.615	-1.24101	-15.1377	-5.10333	1.11878	24.5547	7.87246	3.80816	-11.7109	-28.8826	0.0462048	0.000533964	0.662642	0.174338	-2.71443	-1.38136	0.283514	-5.42948	-2.75935	5.95511	12.1637	10.9686	-3.98E-16	1.59E-15	-3.18E-15	-62.0592	20.0224	8.54851	-6.12192	30.5757	-19.1284	-2.62599	6.08736	5.92781	-3.98E-16	1.59E-15	-3.18E-15	67.4822	23.1033	-11.7206	-14.4846	5.85712	60.2485	9.49685	12.4767	3.539	-1.14662	-26.4102	9.29374	8.75849	49.5898	-13.3591	-25.6155	-11.2011	-37.0666	2.07E-14	3.02E-14	1.59E-14
